<?xml version="1.0" encoding="UTF-8" standalone="no"?>
<!-- Created with Inkscape (http://www.inkscape.org/) -->
<svg xmlns:rdf="http://www.w3.org/1999/02/22-rdf-syntax-ns#" xmlns="http://www.w3.org/2000/svg" xmlns:i="http://ns.adobe.com/AdobeIllustrator/10.0/" xmlns:cc="http://web.resource.org/cc/" xmlns:xlink="http://www.w3.org/1999/xlink" xmlns:dc="http://purl.org/dc/elements/1.1/" xmlns:svg="http://www.w3.org/2000/svg" xmlns:inkscape="http://www.inkscape.org/namespaces/inkscape" xmlns:sodipodi="http://sodipodi.sourceforge.net/DTD/sodipodi-0.dtd" xmlns:ns1="http://sozi.baierouge.fr" id="svg2" version="1.0" viewBox="0 0 209.675 233.876" inkscape:version="0.91 r13725">
  <g id="g3216">
    <path id="path15" style="stroke:#000000;stroke-width:.036;stroke-miterlimit:10;fill-rule:evenodd" d="m22.734 3.241l1.116 22.428-9.036 29.268 4.644 19.44 2.736 17.532-3.024 13.931 2.736 6.59-6.012 13.39-1.62 11.48-5.76 10.41-0.288 19.44-6.264 16.7-1.944 18.04 3.024 5.22 7.668-0.83 2.448 7.92-3.816 7.13 1.08 5.22 15.588 2.73 17.244-3.02 0.828-9.04-5.184-4.93-2.196-12.56 19.44 3.53 18.036-1.37 20.808-2.99 25.164 13.39 6.05 7.67 9.57 2.49 13.15 9.21 17.78 2.2 17.21-5.76-6.84-10.41-22.14-6.01-19.98-15.05-9.87-2.73-8.74-10.12-9.58-8.49 12.02-4.11-1.08-4.1 6.84-2.74 4.94-4.93 6.01 7.41 6.55 5.48-0.79 8.2 5.72 6.27 16.71 0.29 7.66-7.13-8.2-12.56-6.3-5.76-3.28-6.3 32.54-1.08 17.54-4.94 6.01-11.77-8.21-0.82-9.86 8.78-30.1 1.37-29.27-5.22-14.22-17.79-7.67-9.86-19.15-6.84-8.784-4.65-9.828-0.54v-13.137l-1.908-4.932 6.264-13.68 0.828-9.828-4.104-30.24-4.356-13.14 5.724-16.956-11.484 6.012-4.932 17.784-3.564 21.888-8.46-1.08-6.048 1.08-1.908-16.164-1.08-12.564-13.139-16.956-1.657 3.204z"/>
    <path id="path17" style="fill-rule:evenodd;stroke:#000000;stroke-miterlimit:10;stroke-width:.036;fill:#ffffff" d="m39.834 46.369l-3.852-28.8-9.827-13.284-2.52 1.116 1.98 20.736-2.556 9.108-6.192 18.936 1.116 7.848 6.012-4.752 2.916-8.928 0.54-10.008 4.716-9.828-2.16-11.124 4.356 12.024-5.472 9.864-1.08 16.74-6.552 8.388-1.296 7.632 3.672 21.672-2.556 11.661 3.276 6.91-0.36 9.29 3.816 3.28 6.732 0.9 4.752-3.82 6.552 2.02 4.176-1.3 7.848 6.59h6.552l4.716-6.19 2.916-9.29-0.9-24.406-2.376-4.392 2.556-7.092 3.816-7.452-7.092-12.96-2.016-1.8 0.9-10.008-2.7-9.504 1.8-17.82 1.116 9.108-1.296 7.992 2.916 10.944 0.18 7.992 5.472 8.208 1.44-7.272-3.276-23.148-4.356-14.364 4.176-13.86-7.992 4.752-5.832 28.044-2.196 10.728-10.188-1.26-6.373 0.179z"/>
    <path id="path19" style="stroke:#000000;stroke-width:.036;stroke-miterlimit:10;fill-rule:evenodd" d="m24.535 73.693l5.472-4.032 4.536 0.576 3.096 3.456-2.376 4.896-6.192 0.36-1.26-2.34 0.54-3.096-3.816 0.18z"/>
    <path id="path21" style="stroke:#000000;stroke-width:.036;stroke-miterlimit:10;fill-rule:evenodd" d="m58.771 71.677l-2.556 3.816 1.476 4.392 4.176-0.396 2.376-1.26 3.096 1.26-0.756-5.796-4.536-0.936-3.276-1.08z"/>
    <path id="path23" style="stroke:#000000;stroke-width:.036;stroke-miterlimit:10;fill-rule:evenodd" d="m40.375 98.641l-3.636 3.099 0.54 4.53 4.176-0.72 0.18 1.08-1.44 2.74 4.356 2.91-1.44 4.76-8.208 2.34-4.176 3.09 8.568-1.98 5.796 2.16 6.588-2.52 7.272 3.46-2.376-4.39-6.732-1.62 0.54-4.58 1.836-4.89-3.276-1.66 1.8-1.62 3.456-0.75-0.9-4.539-4.896-1.656-3.312 0.576-4.716 0.18z"/>
    <path id="path25" style="stroke:#000000;stroke-width:.036;stroke-miterlimit:10;fill-rule:evenodd" d="m61.867 118.3l1.44-2.74-0.36-9.65 5.652-16.737-8.028 15.477 1.476 9.83-0.18 3.82z"/>
    <path id="path27" style="stroke:#000000;stroke-width:.036;stroke-miterlimit:10;fill-rule:evenodd" d="m25.794 97.885l2.556 7.845-1.44 7.09 3.456-7.99-4.572-6.945z"/>
    <path id="path29" style="fill-rule:evenodd;stroke:#000000;stroke-miterlimit:10;stroke-width:.036;fill:#ffffff" d="m22.878 114.3l-6.012 12.2-0.9 9.83-0.18 10.91-1.476 9.29-6.156 14.76-4.572 12.56-1.26 10.41-0.576 8.17 1.836 2.91 7.848-0.36 3.276 7.64-1.836 10.58 10.548 4.36 15.12-2.74 2.736-6.91-4.536-4.9-1.116-12.02-3.096-4.39-9.828-5.44-4.536-3.67 9.108 2.73 10.728 8.03 17.496 3.1 30.24-2.2 3.276-3.09-9.108-3.64-7.488-0.54 2.736-3.64h11.484l1.26 4 8.568 5.29 25.668 13.46 5.65 7.82 10.94 2.37 14.73 8.93 10.94 1.12 6.01-4.21 6.92 1.11 2.73-2.19-3.81-6.56-18.04-4.57-10.37-6.19-14.04-10.55-10.55-2.73-12.2-14.22-6.91-6.74-6.589-11.66-10.008-11.81-3.456-18.75-10.907-17.32-2.196 8.93-4.212 5.65-8.532 1.26-8.388-6.01-5.292 1.29-4.356-2.19-5.832 3.63-6.552-1.08-5.292-4.75 0.36-7.27z"/>
    <path id="path31" style="fill-rule:evenodd;stroke:#000000;stroke-miterlimit:10;stroke-width:.036;fill:#ffffff" d="m135.16 143.6l17.14 9.83 17.1-0.54 16.56-0.36 15.7-4.17 4.89-8.93-4.53-0.9-9.47 7.45-30.06 2.56-27.33-4.94z"/>
    <path id="path33" style="fill-rule:evenodd;stroke:#000000;stroke-miterlimit:10;stroke-width:.036;fill:#ffffff" d="m74.323 103l7.488 0.72 9.108 5.11 18.221 6.19 10.9 14 12.39 14.58 19.87 11.85 1.44 5.47 9.65 9.65 4.57 9.83-2.92 2.01-3.27 2.38-11.13 0.18-2.91-2.2-5.12-2.73 2.2-7.85-6.55-5.62-7.27-8.38-9.65-5.84-8.93-6.73-17.676-4.57-5.292-13.47-16.02-14.57-0.18-9.83 5.112 0.18-4.031-0.36z"/>
    <path id="path35" style="fill-rule:evenodd;stroke:#000000;stroke-miterlimit:10;stroke-width:.036;fill:#ffffff" d="m77.059 117.58l8.928 14.18 2.916 17.32 6.192 7.45 10.945 16.23 10.55-2.37-2.02-4.21 7.49-2.16 5.07-5.3-16.38-12.2-16.736-4-6.192-14.76-10.763-10.18z"/>
    <path id="path37" style="fill-rule:evenodd;stroke:#000000;stroke-miterlimit:10;stroke-width:.036;fill:#ffffff" d="m14.527 139.57l-4.428 8.46-0.54 15.84 3.204-7.38 1.764-10.29v-6.63z"/>
  </g>
  <metadata>
    <rdf:RDF>
      <cc:Work>
        <dc:format>image/svg+xml</dc:format>
        <dc:type rdf:resource="http://purl.org/dc/dcmitype/StillImage"/>
        <cc:license rdf:resource="http://creativecommons.org/licenses/publicdomain/"/>
        <dc:publisher>
          <cc:Agent rdf:about="http://openclipart.org/">
            <dc:title>Openclipart</dc:title>
          </cc:Agent>
        </dc:publisher>
        <dc:title>Dog (Simple Drawing)</dc:title>
        <dc:date>2007-11-14T23:32:12</dc:date>
        <dc:description/>
        <dc:source>https://openclipart.org/detail/8512/dog-(simple-drawing)-by-gerald_g-8512</dc:source>
        <dc:creator>
          <cc:Agent>
            <dc:title>Gerald_G</dc:title>
          </cc:Agent>
        </dc:creator>
        <dc:subject>
          <rdf:Bag>
            <rdf:li>animal</rdf:li>
            <rdf:li>colouring book</rdf:li>
            <rdf:li>dog</rdf:li>
            <rdf:li>mammal</rdf:li>
            <rdf:li>pet</rdf:li>
          </rdf:Bag>
        </dc:subject>
      </cc:Work>
      <cc:License rdf:about="http://creativecommons.org/licenses/publicdomain/">
        <cc:permits rdf:resource="http://creativecommons.org/ns#Reproduction"/>
        <cc:permits rdf:resource="http://creativecommons.org/ns#Distribution"/>
        <cc:permits rdf:resource="http://creativecommons.org/ns#DerivativeWorks"/>
      </cc:License>
    </rdf:RDF>
  </metadata>
</svg>
